<?xml version="1.0" encoding="UTF-8"?>
<svg id="Layer_2" data-name="Layer 2" xmlns="http://www.w3.org/2000/svg" viewBox="0 0 192.17 144.08">
  <defs>
    <style>
      .cls-1 {
        fill: #fff;
      }
    </style>
  </defs>
  <g id="Layer_1-2" data-name="Layer 1">
    <g>
      <path class="cls-1" d="M0,0c64.06,0,128.11,0,192.17,0,0,48.03,0,96.05,0,144.08-64.06,0-128.11,0-192.17,0C0,96.05,0,48.03,0,0ZM87.19,41.85h.01c-.15-.31-.33-.62-.46-.95-.37-.92-.75-1.84-1.08-2.77-.38-1.08-.75-2.16-1.49-3.06-.35-.43-.86-.77-1.08-1.25-.35-.76-.97-1.01-1.66-1.25-.77-.27-1.92-.11-2.29,.41-.24,.34-.51,.39-.9,.37-.77-.04-1.54-.01-2.36-.01,.74,.22,1.44,.42,2.12,.65,.16,.05,.34,.17,.43,.31,.36,.56,.57,1.16,.49,1.86-.04,.34,.06,.75,.22,1.06,.28,.55,.6,1.11,1.02,1.56,.44,.48,1.02,.84,1.51,1.28,.13,.11,.27,.4,.22,.49-.26,.45-.5,.95-.89,1.25-1.29,1-1.79,2.43-2.15,3.89-.15,.61-.44,1.03-.82,1.43-.5,.53-1.03,1.03-1.57,1.52-.5,.45-1.01,.9-1.55,1.3-.31,.23-.53,.07-.48-.31,.08-.57,.18-1.13,.31-1.69,.12-.5,.25-1.01,.43-1.49,.22-.56,.48-1.11,.77-1.64,.49-.89,.61-1.98,1.52-2.64,.29-.21,.13-.45-.13-.6-.54-.3-.69,.18-.87,.44-.2-.05-.42-.17-.47-.12-.13,.13-.19,.34-.25,.52-.19,.54-.32,1.11-.55,1.64-.37,.87-.93,1.68-1.16,2.58-.34,1.28-.45,2.62-.67,3.93-.03,.17-.07,.39-.19,.49-.72,.61-1.45,1.21-2.21,1.77-.16,.12-.43,.11-.67,.16-.17,.18-.36,.48-.62,.65-1.76,1.14-3.51,2.28-5.32,3.33-.41,.24-.81,.36-1.12,.78-.27,.38-.74,.63-1.16,.89-1.12,.72-2.29,1.36-3.37,2.14-1.08,.77-2.08,1.66-3.11,2.5-.52,.42-1.02,.86-1.62,1.37v-3.93c-.2,.19-.32,.29-.44,.41-3.17,3.17-6.35,6.35-9.52,9.52-5.82,5.82-11.64,11.64-17.46,17.46-.21,.21-.38,.38-.29,.74,1.3,5.4,3.18,10.58,5.69,15.53,5.07,9.99,12.08,18.37,21.02,25.13,.3,.23,.61,.45,1,.74,0-.32,0-.52,0-.71,0-16.75,0-33.49,0-50.24,0-.46,.04-.8,.61-.8,.13,0,.26-.07,.39-.11,1.4-.39,2.74-1.08,4.26-1,.1,0,.21-.14,.32-.22,.16-.12,.31-.3,.5-.36,.97-.3,1.97-.5,2.91-.85,.82-.3,1.58-.63,2.49-.42,.39,.09,.84-.02,1.25-.1,.54-.09,1.06-.28,1.6-.35,.99-.13,2.01-.14,2.99-.33,2.24-.44,4.48-.29,6.71-.04,2.13,.24,4.25,.52,6.38,.79,.45,.06,.91,.21,1.35,.17,1.1-.1,2.17,.04,3.21,.35,.37,.11,.7,.37,1.04,.57,.17,.1,.34,.21,.51,.32l.09-.1c-.1-.16-.19-.32-.32-.52,.16-.05,.29-.11,.42-.12,.96-.07,1.92-.14,2.89-.18,.73-.03,1.47,.02,2.2-.03,.62-.04,1.23-.22,1.84-.25,2.48-.1,4.97-.15,7.45-.22,.27,0,.56-.04,.81,.03,1.1,.33,2.21,.62,3.27,1.05,1.81,.73,3.59,1.56,5.36,2.34,0-.02,.05-.14,.09-.26,.06,.12,.16,.23,.16,.35,.02,1.07,.28,2.13,.01,3.21-.05,.2,.01,.53,.15,.65,.36,.3,.32,.66,.3,1.04-.01,.27-.03,.54-.05,.81,.06,0,.11,.01,.17,.02,.04-.23,.07-.47,.13-.69,.08-.32,.08-.78,.29-.93,.54-.39,.51-.9,.53-1.44,.03-.84,.13-1.65,.54-2.43,.61-1.18,1.12-2.41,1.63-3.64,.31-.75,.37-.83,1.18-.65,.46,.1,.91,.28,1.37,.34,.68,.08,1.36,.05,2.04,.11,.31,.03,.43-.05,.41-.32-1.53-.21-3.03-.43-4.57-.64,.27-.85,.54-1.58,.73-2.32,.27-1.01,.38-2.05,.21-3.09-.09-.51,.6-1.49,1.13-1.53,.32-.02,.64,0,.96,0,.18,.43,.2,1.11,.97,.59-.04,.13-.06,.21-.09,.34,.27-.15,.57-.21,.69-.4,.12-.21,.19-.62,.07-.77-.27-.34-.67-.57-1.15-.58-.54-.01-1.08-.05-1.62-.11-.17-.02-.33-.14-.47-.25-.27-.22-.49-.51-.78-.68-.68-.38-1.36-.14-2.03,.11-.52,.19-.95,.46-1.05,1.09-.05,.27-.22,.52-.36,.77-.59,1.03-1.26,2.03-1.37,3.27-.07,.73-.15,1.46-.23,2.24-3.91-.91-7.76-2.05-11.9-1.99,.72-.55,1.33-1.02,1.95-1.47,.39-.28,.8-.34,1.14-.08,.62-.42,1.21-.81,1.8-1.2-.03-.06-.06-.12-.1-.19-.26,.12-.51,.25-.77,.37-.26,.12-.53,.22-.9,.37,.15-.27,.23-.41,.31-.56-.03-.03-.06-.06-.1-.1-.3,.22-.6,.44-.9,.67-.28,.21-.54,.29-.76-.09-.46,1.07-1.29,1.69-1.76,1.36-.26,.74-.97,.69-1.54,.86-.35,.11-.7,.2-1.05,.3-.65,.19-1.29,.39-1.94,.57-.2,.05-.46-.03-.61,.07-.93,.57-1.87,1.13-2.74,1.79-.83,.63-1.7,1-2.73,1.2-1.09,.21-2.12,.27-3.18-.13-.49-.19-1.06-.35-1.57-.3-1.56,.15-3.1,.11-4.65-.1-1.67-.23-3.34-.48-5.02-.7-.77-.1-1.55-.14-2.32-.25-.18-.03-.34-.24-.61-.44,0,0-.13,.05-.27,.09-.55,.15-1.09,.35-1.65,.43-.41,.06-.85-.07-1.28-.05-.96,.04-1.92,.17-2.88,.16-.58,0-1.11-.04-1.58,.4-.15,.14-.44,.15-.67,.19-.78,.13-1.57,.26-2.35,.35-.3,.04-.62-.03-1.02-.06-.31,.13-.73,.36-1.17,.49-1.84,.53-3.7,1.04-5.54,1.55-.71,.2-1.41,.4-2.17,.62,0-3.35,0-6.63,.01-9.92,0-.14,.12-.31,.24-.41,.76-.64,1.54-1.26,2.31-1.9,1.09-.9,2.18-1.82,3.28-2.71,.44-.35,.95-.63,1.41-.96,.33-.23,.6-.58,.95-.73,.34-.14,.75-.1,1.15-.14-.07-.12-.16-.25-.31-.48,.11-.07,.23-.15,.34-.22,1.57-.99,3.13-1.99,4.7-2.97,.12-.07,.31-.03,.47-.01,.45,.04,.91,.16,1.35,.12,.31-.03,.48-.03,.69,.23,.21,.25,.5,.49,.71-.04,.03-.08,.16-.12,.22-.19,.07-.08,.12-.17,.18-.26-.08-.05-.15-.1-.24-.15-.68-.39-1.38-.65-2.18-.4-.03,0-.07-.05-.17-.12,.85-.62,1.66-1.21,2.47-1.81,.42-.32,.84-.56,1.35-.16,.1,.08,.24,.09,.5,.18-.09-.3-.09-.54-.22-.67-.23-.24-.14-.39,.05-.54,.53-.41,1.08-.8,1.61-1.21,.83-.65,1.69-1.28,2.46-2,.53-.5,.93-1.04,1.76-1.23,1.26-.28,2.44-.85,3.68-1.23,.63-.19,1.3-.55,1.97-.15,.11-.11,.2-.28,.33-.31,1.78-.43,3.6-.52,5.42-.41,.41,.02,.81,.12,1.22,.13,.61,.01,1.23-.04,1.84-.02,.36,.01,.71,.11,1.07,.19,.78,.18,1.63,.18,2.23,.85,.07,.08,.35,.09,.43,.02,.31-.26,.5-.05,.68,.14,.18,.19,.32,.41,.43,.55,.29-.14,.55-.38,.78-.35,1.08,.09,1.94,.65,2.64,1.45,.45,.51,.85,1.05,1.3,1.55,.2,.22,.47,.36,.73,.56,.04-.17,.06-.27,.12-.5,.37,.43,.67,.77,.97,1.12,.02-.02,.05-.05,.07-.07-.66-.98-1.31-1.97-2.03-3.03,.38,.12,.64,.21,.9,.29-.07-.22-.2-.32-.3-.45-.68-.81-1.46-1.55-1.77-2.61-.19-.64-.38-1.28-.58-1.91-.09-.29-.28-.56-.28-.85-.01-.51-.4-.71-.69-.98-.41-.38-.9-.68-1.32-1.05-.42-.36-.77-.82-1.22-1.12-1.12-.75-2.7-.35-3.18,.64-.17,.35-.38,.44-.7,.52-.49,.12-.96,.3-1.44,.45,.01,.05,.02,.1,.04,.16,.48,0,.97-.02,1.45,0,.28,.01,.52,.12,.36,.48-.4,.9-.15,1.71,.32,2.5,.18,.3,.29,.64,.47,1.07-.39-.06-.64-.09-.89-.15-.41-.09-.81-.25-1.23-.29-.91-.09-1.82-.12-2.73-.18-.1,0-.25-.02-.28-.07-.34-.65-.9-.32-1.43-.32-.24-.63-.48-1.28-.75-1.98h2.61s.04-.09,.05-.14c-.18-.12-.34-.3-.54-.34-.44-.1-.9-.12-1.35-.18-.13-.02-.28,0-.38-.07-.31-.17-.61-.37-.91-.56Zm20.26,101.22c-.22-.23-.34-.37-.46-.49-7.99-7.99-15.98-15.97-23.96-23.96-2.56-2.56-5.13-5.12-7.69-7.69-.16-.16-.4-.3-.21-.59,.72-1.08,1.43-2.16,2.16-3.24,.25-.38,.55-.72,.81-1.09,.3-.45,.57-.92,.88-1.36,.09-.13,.37-.28,.42-.24,.45,.35,.97,.21,1.47,.27,.41,.05,.82,.14,1.21,.27,.78,.25,1.54,.58,2.33,.78,1.73,.45,3.47,.86,5.21,1.26,.77,.18,1.56,.4,2.34,.39,.74,0,1.13,.25,1.36,.9,.07,.21,.17,.41,.22,.62,.25,1.14,.51,2.27,.73,3.41,.12,.62,.19,1.26,.3,1.97h-9.76c.15,.16,.21,.24,.28,.31,9.05,9.05,18.11,18.1,27.16,27.16,.2,.2,.36,.28,.66,.2,1.86-.54,3.76-.99,5.6-1.6,13.48-4.47,24.67-12.26,33.62-23.27,.72-.89,1.4-1.8,2.17-2.81-.35,0-.57,0-.78,0-17.83,0-35.67,0-53.5,0-.5,0-1.05,.14-1.43-.37-.05-.07-.18-.09-.28-.1-.37-.04-.51-.26-.56-.61-.15-1.04-.35-2.06-.48-3.1-.11-.87-.2-1.8,.27-2.58,.95-1.59,2-3.11,3-4.67,.38-.59,.67-1.18,.33-1.94-.15-.33-.09-.81,.01-1.19,.34-1.18,.79-2.32,1.1-3.5,.18-.68,.25-1.41,.25-2.11,0-.95,.24-1.75,1.04-2.32,.41-.29,.85-.55,1.28-.82,.55-.33,1.15-.59,1.64-.99,.3-.24,.5-.67,.61-1.06,.15-.56-.38-.75-.72-1.04-.1,.09-.2,.17-.29,.24-.17-.15-.32-.28-.46-.4,.06-.11,.09-.19,.13-.26,.59-1.1,1.04-2.19,.22-3.41-.33-.5-.54-.7-1.11-.44-.66,.3-1.31,.64-1.95,.98-.48,.26-.94,.32-1.45,.11-.25-.1-.58-.19-.83-.11-.86,.25-1.71,.54-2.53,.88-.41,.17-.86,.41-1.13,.75-1,1.27-1.65,2.7-1.6,4.37,0,.15,0,.32-.06,.44-.41,.65-.82,1.3-1.29,1.91-.68,.88-1.31,1.88-2.68,1.67-.08-.01-.17,.03-.25,.04-1.17,.15-2.34,.42-3.52,.42-2.25,0-4.49-.13-6.74-.22-.08,0-.17-.05-.25-.05-1.26-.01-2.53,0-3.79-.05-.61-.02-1.32,.04-1.82-.24-1.43-.79-2.76-1.75-4.15-2.62-.64-.4-1.28-.82-1.97-1.13-1.62-.71-3.28-1.3-5.09-1.07-.36,.05-.71,.18-1.06,.31-.27,.1-.39,.35-.21,.57,.27,.32,.59,.62,.93,.87,.43,.32,.91,.57,1.36,.87,.41,.28,.78,.64,1.21,.87,.47,.25,1,.39,1.51,.58,1.84,.69,3.47,1.7,4.95,2.98,.34,.3,.42,.65,.23,1.05-.2,.41-.43,.8-.65,1.2-.27,.5-.69,.97-.77,1.5-.1,.66,.06,1.37,.12,2.06,.03,.35,.14,.7,.16,1.05,.05,1.09,.07,2.19,.1,3.31-4.33-4.32-8.67-8.66-13.08-13.08,0,.22-.02,.29-.02,.36,0,12.84,0,25.67,0,38.51,0,.31,.11,.49,.37,.65,4.8,2.93,9.86,5.27,15.21,7.01,5.74,1.87,11.62,3,17.64,3.38,3.6,.23,7.21,.21,10.81-.11,1.69-.15,3.38-.38,5.19-.58Zm26.58-92.89v-.55c0-11.84,0-23.67,0-35.51,0-.9,.02-1.8-.02-2.69,0-.2-.16-.47-.33-.59-.66-.44-1.35-.83-2.05-1.22C121.53,3.9,110.67,.82,99.08,.33c-3.44-.15-6.87-.04-10.3,.31-1.29,.13-2.57,.32-3.83,.48,16.37,16.37,32.71,32.7,49.07,49.07Zm4.32,33.24c.19-.18,.32-.3,.45-.42,8.71-8.7,17.39-17.43,26.14-26.08,.94-.93,1.11-1.69,.77-2.92-4.29-15.92-12.97-28.91-25.98-39.02-.43-.34-.88-.65-1.38-1.02V83.43Zm-113.2-.22c16.35-16.35,32.68-32.67,48.99-48.98-.1,0-.29,0-.47,0-12.67,0-25.33,0-38-.01-.44,0-.69,.13-.92,.51-2.95,4.88-5.31,10.03-7.04,15.46-2.08,6.5-3.18,13.17-3.39,19.98-.1,3.22,.06,6.43,.4,9.63,.12,1.16,.29,2.31,.43,3.4Zm92.92,26.72c.11,0,.22,.02,.33,.02,12.8,0,25.6,0,38.4,0,.31,0,.48-.11,.64-.37,2.79-4.56,5.04-9.37,6.75-14.43,2.43-7.17,3.65-14.54,3.79-22.1,.06-3.2-.15-6.39-.52-9.57-.1-.87-.24-1.73-.36-2.59-16.36,16.36-32.69,32.68-49.04,49.04Zm-10.71-80.07s.07-.09,.1-.13c-.16-.12-.34-.23-.48-.37-8.96-8.95-17.92-17.91-26.87-26.87-.28-.28-.52-.34-.89-.25-5.82,1.44-11.39,3.52-16.69,6.34-8.54,4.54-15.87,10.55-22.01,18.03-.85,1.04-1.66,2.12-2.55,3.26H107.36Z"/>
      <path d="M107.45,143.07c-1.81,.21-3.5,.43-5.19,.58-3.6,.32-7.2,.34-10.81,.11-6.02-.38-11.9-1.51-17.64-3.38-5.34-1.74-10.41-4.08-15.21-7.01-.26-.16-.37-.33-.37-.65,0-12.84,0-25.67,0-38.51,0-.07,0-.13,.02-.36,4.42,4.41,8.76,8.75,13.08,13.08-.03-1.13-.05-2.22-.1-3.31-.02-.35-.12-.7-.16-1.05-.06-.69-.22-1.39-.12-2.06,.08-.53,.5-1,.77-1.5,.22-.4,.45-.79,.65-1.2,.19-.39,.11-.75-.23-1.05-1.48-1.28-3.12-2.29-4.95-2.98-.51-.19-1.04-.33-1.51-.58-.44-.23-.8-.59-1.21-.87-.44-.3-.93-.55-1.36-.87-.34-.25-.66-.54-.93-.87-.18-.22-.06-.47,.21-.57,.34-.13,.7-.26,1.06-.31,1.82-.23,3.48,.36,5.09,1.07,.69,.3,1.33,.72,1.97,1.13,1.38,.87,2.72,1.82,4.15,2.62,.5,.28,1.2,.22,1.82,.24,1.26,.04,2.53,.03,3.79,.05,.08,0,.17,.04,.25,.05,2.25,.08,4.49,.22,6.74,.22,1.17,0,2.34-.27,3.52-.42,.08-.01,.17-.05,.25-.04,1.37,.21,2-.79,2.68-1.67,.47-.61,.88-1.26,1.29-1.91,.07-.11,.07-.29,.06-.44-.05-1.67,.6-3.1,1.6-4.37,.27-.34,.72-.58,1.13-.75,.82-.34,1.67-.63,2.53-.88,.25-.07,.58,.01,.83,.11,.52,.21,.98,.15,1.45-.11,.64-.35,1.28-.68,1.95-.98,.57-.26,.78-.06,1.11,.44,.82,1.22,.37,2.31-.22,3.41-.04,.07-.08,.15-.13,.26,.14,.13,.29,.25,.46,.4,.09-.07,.19-.15,.29-.24,.34,.29,.87,.48,.72,1.04-.1,.38-.31,.82-.61,1.06-.49,.4-1.09,.66-1.64,.99-.43,.26-.87,.52-1.28,.82-.79,.57-1.03,1.37-1.04,2.32,0,.71-.07,1.43-.25,2.11-.31,1.18-.76,2.33-1.1,3.5-.11,.37-.16,.86-.01,1.19,.34,.76,.05,1.35-.33,1.94-1,1.56-2.05,3.09-3,4.67-.47,.78-.38,1.7-.27,2.58,.13,1.04,.33,2.07,.48,3.1,.05,.35,.19,.57,.56,.61,.1,.01,.23,.03,.28,.1,.38,.51,.93,.37,1.43,.37,17.83,0,35.67,0,53.5,0,.22,0,.43,0,.78,0-.77,1-1.45,1.92-2.17,2.81-8.95,11.01-20.15,18.8-33.62,23.27-1.84,.61-3.74,1.05-5.6,1.6-.3,.09-.46,0-.66-.2-9.05-9.06-18.1-18.11-27.16-27.16-.07-.07-.13-.15-.28-.31h9.76c-.11-.71-.18-1.35-.3-1.97-.23-1.14-.48-2.28-.73-3.41-.05-.21-.15-.41-.22-.62-.22-.65-.61-.91-1.36-.9-.78,0-1.57-.22-2.34-.39-1.74-.4-3.48-.81-5.21-1.26-.79-.21-1.55-.54-2.33-.78-.39-.12-.8-.22-1.21-.27-.49-.06-1.01,.08-1.47-.27-.05-.04-.33,.12-.42,.24-.31,.44-.57,.92-.88,1.36-.25,.37-.56,.72-.81,1.09-.73,1.07-1.44,2.16-2.16,3.24-.19,.29,.05,.43,.21,.59,2.56,2.56,5.12,5.13,7.69,7.69,7.99,7.99,15.98,15.97,23.96,23.96,.13,.13,.24,.26,.46,.49Z"/>
      <path d="M87.19,41.85c.3,.19,.6,.39,.91,.56,.11,.06,.25,.05,.38,.07,.45,.06,.91,.08,1.35,.18,.2,.04,.36,.23,.54,.34-.02,.05-.04,.09-.05,.14h-2.61c.26,.7,.51,1.35,.75,1.98,.54,0,1.09-.33,1.43,.32,.03,.06,.19,.07,.28,.07,.91,.06,1.82,.09,2.73,.18,.41,.04,.82,.2,1.23,.29,.24,.05,.49,.08,.89,.15-.18-.43-.29-.77-.47-1.07-.47-.79-.72-1.6-.32-2.5,.16-.36-.08-.47-.36-.48-.48-.02-.97,0-1.45,0-.01-.05-.02-.1-.04-.16,.48-.15,.95-.34,1.44-.45,.33-.08,.54-.17,.7-.52,.48-.99,2.06-1.39,3.18-.64,.45,.3,.8,.76,1.22,1.12,.43,.37,.91,.67,1.32,1.05,.29,.27,.67,.47,.69,.98,0,.29,.19,.56,.28,.85,.2,.64,.39,1.27,.58,1.91,.31,1.06,1.09,1.8,1.77,2.61,.1,.12,.24,.23,.3,.45-.26-.09-.53-.17-.9-.29,.71,1.07,1.37,2.05,2.03,3.03-.02,.02-.05,.05-.07,.07-.3-.35-.6-.69-.97-1.12-.06,.24-.08,.34-.12,.5-.26-.2-.53-.34-.73-.56-.45-.5-.85-1.05-1.3-1.55-.7-.8-1.57-1.35-2.64-1.45-.24-.02-.49,.22-.78,.35-.11-.14-.25-.37-.43-.55-.18-.19-.37-.4-.68-.14-.09,.07-.36,.06-.43-.02-.6-.67-1.45-.67-2.23-.85-.35-.08-.71-.17-1.07-.19-.61-.02-1.23,.04-1.84,.02-.41,0-.81-.11-1.22-.13-1.83-.11-3.64-.03-5.42,.41-.12,.03-.22,.2-.33,.31-.67-.4-1.34-.05-1.97,.15-1.24,.38-2.43,.95-3.68,1.23-.82,.19-1.22,.72-1.76,1.23-.77,.72-1.63,1.35-2.46,2-.53,.42-1.08,.8-1.61,1.21-.19,.15-.28,.3-.05,.54,.12,.13,.13,.37,.22,.67-.26-.09-.4-.1-.5-.18-.51-.4-.92-.15-1.35,.16-.81,.6-1.63,1.19-2.47,1.81,.1,.07,.15,.13,.17,.12,.8-.25,1.5,0,2.18,.4,.08,.05,.16,.1,.24,.15-.06,.09-.11,.18-.18,.26-.06,.07-.19,.11-.22,.19-.22,.53-.51,.29-.71,.04-.2-.25-.38-.25-.69-.23-.44,.04-.9-.08-1.35-.12-.16-.01-.36-.06-.47,.01-1.57,.98-3.14,1.98-4.7,2.97-.11,.07-.23,.15-.34,.22,.15,.23,.23,.36,.31,.48-.41,.04-.82,0-1.15,.14-.36,.15-.63,.49-.95,.73-.46,.33-.97,.61-1.41,.96-1.11,.89-2.19,1.81-3.28,2.71-.77,.63-1.55,1.26-2.31,1.9-.12,.1-.24,.27-.24,.41-.01,3.28-.01,6.57-.01,9.92,.75-.21,1.46-.42,2.17-.62,1.85-.52,3.7-1.02,5.54-1.55,.45-.13,.86-.36,1.17-.49,.41,.03,.72,.1,1.02,.06,.79-.09,1.57-.22,2.35-.35,.23-.04,.52-.05,.67-.19,.47-.45,1-.41,1.58-.4,.96,0,1.92-.12,2.88-.16,.42-.02,.86,.11,1.28,.05,.56-.08,1.1-.28,1.65-.43,.14-.04,.28-.09,.27-.09,.27,.2,.42,.41,.61,.44,.77,.11,1.55,.15,2.32,.25,1.67,.22,3.34,.47,5.02,.7,1.55,.21,3.09,.24,4.65,.1,.51-.05,1.07,.12,1.57,.3,1.06,.4,2.09,.33,3.18,.13,1.02-.19,1.9-.57,2.73-1.2,.87-.66,1.81-1.21,2.74-1.79,.16-.1,.42-.01,.61-.07,.65-.18,1.29-.38,1.94-.57,.35-.1,.7-.2,1.05-.3,.58-.18,1.28-.13,1.54-.86,.47,.33,1.3-.29,1.76-1.36,.22,.38,.48,.3,.76,.09,.29-.23,.6-.45,.9-.67,.03,.03,.06,.06,.1,.1-.08,.15-.16,.3-.31,.56,.36-.15,.63-.25,.9-.37,.26-.12,.52-.24,.77-.37,.03,.06,.06,.12,.1,.19-.59,.39-1.17,.79-1.8,1.2-.34-.26-.75-.2-1.14,.08-.62,.45-1.22,.92-1.95,1.47,4.13-.05,7.99,1.08,11.9,1.99,.08-.78,.16-1.51,.23-2.24,.11-1.24,.78-2.24,1.37-3.27,.14-.25,.32-.5,.36-.77,.11-.62,.53-.89,1.05-1.09,.66-.24,1.34-.49,2.03-.11,.29,.17,.51,.46,.78,.68,.14,.11,.31,.24,.47,.25,.54,.06,1.08,.1,1.62,.11,.49,.01,.88,.24,1.15,.58,.12,.15,.05,.56-.07,.77-.11,.18-.42,.25-.69,.4,.03-.13,.06-.21,.09-.34-.78,.52-.79-.16-.97-.59-.33,0-.65-.02-.96,0-.53,.04-1.21,1.02-1.13,1.53,.18,1.04,.06,2.08-.21,3.09-.2,.75-.46,1.47-.73,2.32,1.55,.22,3.05,.43,4.57,.64,.02,.27-.1,.35-.41,.32-.68-.06-1.37-.03-2.04-.11-.46-.05-.91-.24-1.37-.34-.81-.18-.86-.1-1.18,.65-.51,1.23-1.02,2.46-1.63,3.64-.41,.79-.51,1.59-.54,2.43-.02,.54,.01,1.05-.53,1.44-.21,.15-.21,.61-.29,.93-.06,.23-.09,.46-.13,.69-.06,0-.11-.01-.17-.02,.02-.27,.04-.54,.05-.81,.02-.38,.06-.74-.3-1.04-.14-.11-.2-.45-.15-.65,.27-1.08,.01-2.14-.01-3.21,0-.12-.1-.23-.16-.35-.04,.12-.08,.23-.09,.26-1.77-.78-3.55-1.6-5.36-2.34-1.06-.43-2.17-.72-3.27-1.05-.25-.07-.54-.04-.81-.03-2.48,.07-4.97,.13-7.45,.22-.62,.02-1.23,.21-1.84,.25-.73,.05-1.47,0-2.2,.03-.96,.04-1.92,.12-2.89,.18-.13,0-.25,.07-.42,.12,.12,.2,.22,.36,.32,.52l-.09,.1c-.17-.11-.34-.22-.51-.32-.34-.2-.67-.46-1.04-.57-1.04-.31-2.11-.46-3.21-.35-.44,.04-.9-.11-1.35-.17-2.13-.27-4.25-.55-6.38-.79-2.24-.25-4.47-.4-6.71,.04-.98,.19-2,.2-2.99,.33-.54,.07-1.06,.26-1.6,.35-.41,.07-.86,.19-1.25,.1-.91-.21-1.68,.11-2.49,.42-.95,.35-1.94,.56-2.91,.85-.18,.06-.33,.24-.5,.36-.11,.08-.22,.23-.32,.22-1.52-.08-2.85,.61-4.26,1-.13,.04-.26,.11-.39,.11-.57,0-.61,.33-.61,.8,0,16.75,0,33.49,0,50.24,0,.2,0,.39,0,.71-.39-.29-.7-.51-1-.74-8.94-6.76-15.95-15.14-21.02-25.13-2.51-4.95-4.39-10.13-5.69-15.53-.09-.36,.09-.53,.29-.74,5.82-5.82,11.64-11.64,17.46-17.46,3.17-3.17,6.35-6.35,9.52-9.52,.11-.11,.24-.22,.44-.41v3.93c.6-.51,1.11-.94,1.62-1.37,1.03-.84,2.03-1.73,3.11-2.5,1.08-.77,2.25-1.42,3.37-2.14,.41-.26,.88-.52,1.16-.89,.31-.42,.71-.55,1.12-.78,1.81-1.05,3.56-2.2,5.32-3.33,.27-.17,.45-.47,.62-.65,.25-.06,.51-.04,.67-.16,.75-.57,1.49-1.16,2.21-1.77,.12-.1,.16-.32,.19-.49,.22-1.31,.34-2.65,.67-3.93,.24-.9,.79-1.71,1.16-2.58,.23-.53,.36-1.09,.55-1.64,.06-.18,.13-.39,.25-.52,.05-.05,.28,.07,.47,.12,.19-.25,.34-.74,.87-.44,.26,.15,.42,.39,.13,.6-.91,.66-1.03,1.75-1.52,2.64-.29,.53-.55,1.08-.77,1.64-.19,.48-.32,.99-.43,1.49-.13,.56-.23,1.12-.31,1.69-.05,.38,.17,.54,.48,.31,.54-.4,1.05-.84,1.55-1.3,.54-.49,1.07-.99,1.57-1.52,.38-.41,.67-.83,.82-1.43,.36-1.46,.86-2.89,2.15-3.89,.39-.3,.64-.81,.89-1.25,.05-.09-.09-.38-.22-.49-.49-.44-1.07-.8-1.51-1.28-.41-.45-.73-1.01-1.02-1.56-.16-.31-.26-.71-.22-1.06,.09-.7-.12-1.3-.49-1.86-.09-.14-.27-.26-.43-.31-.68-.23-1.38-.42-2.12-.65,.81,0,1.59-.03,2.36,.01,.39,.02,.65-.02,.9-.37,.37-.52,1.52-.68,2.29-.41,.69,.24,1.31,.5,1.66,1.25,.22,.48,.73,.82,1.08,1.25,.74,.9,1.11,1.98,1.49,3.06,.33,.94,.71,1.85,1.08,2.77,.13,.33,.3,.64,.46,.96-.45-.58-.9-1.16-1.41-1.82,.24,.82,.67,1.43,1.14,2.03,.09-.08,.18-.15,.26-.23Zm7.21,33.12s.04,.08,.05,.11c.22,0,.43,0,.65,0,1.02,0,2-.27,3.05-.25,2.13,.05,4.29,.3,6.42-.14,.05,0,.12-.02,.15,0,.41,.4,.91,.21,1.39,.22,.14,0,.3,.05,.43,.12,.24,.11,.44,.32,.69,.37,1.44,.3,2.72,1,4.04,1.58,.48,.21,1.02,.28,1.53,.41,.12,.03,.35,.04,.36,.1,.1,.55,.58,.41,.91,.48,.4,.09,.64-.09,.62-.55-.05-1.11-.11-2.22-.12-3.33,0-.4-.14-.57-.51-.64-.94-.18-1.89-.37-2.83-.57-1.3-.28-2.58-.62-3.89-.86-1.06-.19-2.14-.34-3.22-.37-1.41-.04-2.84-.05-4.21,.45-.59,.21-1.21,.36-1.81,.55-.32,.1-.65,.21-.93,.38-.63,.39-1.24,.83-1.85,1.25-.31,.22-.61,.46-.91,.69Zm-11.14-34.49c-.34,.51-.62,1-.97,1.43-.35,.43-.78,.78-1.16,1.19-.54,.59-.76,1.33-.89,2.12,.34-.18,.61-.43,.92-.63,.26-.16,.57-.37,.85-.36,1.55,.06,2.71-.79,3.93-1.51-.53-1.21-1.65-1.58-2.67-2.24Zm-3.42,6.54s.05,.07,.08,.11c.56-.16,1.12-.35,1.69-.49,1.26-.32,2.52-.62,3.78-.92,.25-.06,.52-.08,.77-.13,.7-.13,1.46-.02,2.07-.5-.22-.45-.67-.62-.97-.93-.62-.62-1.12-.39-1.72-.12-.84,.38-1.7,.72-2.54,1.09-.67,.3-1.34,.59-1.97,.95-.43,.25-.8,.62-1.2,.93Z"/>
      <path d="M134.03,50.18C117.66,33.82,101.32,17.48,84.95,1.12c1.27-.16,2.55-.35,3.83-.48,3.42-.35,6.86-.45,10.3-.31,11.59,.5,22.45,3.58,32.55,9.3,.69,.39,1.38,.79,2.05,1.22,.17,.11,.33,.38,.33,.59,.04,.9,.02,1.79,.02,2.69,0,11.84,0,23.67,0,35.51v.55Z"/>
      <path d="M138.34,83.43V13.96c.5,.37,.95,.69,1.38,1.02,13.01,10.11,21.69,23.09,25.98,39.02,.33,1.23,.16,1.99-.77,2.92-8.75,8.66-17.44,17.38-26.14,26.08-.13,.13-.26,.25-.45,.42Z"/>
      <path d="M25.14,83.21c-.14-1.1-.31-2.25-.43-3.4-.34-3.2-.5-6.41-.4-9.63,.21-6.82,1.31-13.48,3.39-19.98,1.74-5.43,4.09-10.58,7.04-15.46,.23-.38,.48-.51,.92-.51,12.67,.01,25.33,.01,38,.01,.18,0,.37,0,.47,0-16.31,16.3-32.64,32.63-48.99,48.98Z"/>
      <path d="M118.06,109.93c16.35-16.35,32.68-32.68,49.04-49.04,.12,.86,.26,1.72,.36,2.59,.37,3.18,.58,6.37,.52,9.57-.14,7.56-1.37,14.93-3.79,22.1-1.71,5.06-3.96,9.87-6.75,14.43-.16,.26-.33,.37-.64,.37-12.8,0-25.6,0-38.4,0-.11,0-.23-.01-.33-.02Z"/>
      <path d="M107.36,29.86H37.98c.89-1.14,1.7-2.22,2.55-3.26,6.14-7.47,13.47-13.48,22.01-18.03,5.29-2.82,10.87-4.9,16.69-6.34,.36-.09,.61-.03,.89,.25,8.95,8.96,17.91,17.92,26.87,26.87,.14,.14,.32,.25,.48,.37-.03,.04-.07,.09-.1,.13Z"/>
      <path class="cls-1" d="M94.4,74.98c.3-.23,.6-.47,.91-.69,.61-.43,1.22-.86,1.85-1.25,.28-.17,.61-.28,.93-.38,.6-.19,1.22-.33,1.81-.55,1.37-.5,2.8-.48,4.21-.45,1.08,.03,2.16,.18,3.22,.37,1.3,.23,2.59,.58,3.89,.86,.94,.2,1.88,.39,2.83,.57,.37,.07,.51,.24,.51,.64,0,1.11,.07,2.22,.12,3.33,.02,.46-.22,.65-.62,.55-.33-.08-.8,.07-.91-.48,0-.05-.23-.06-.36-.1-.51-.13-1.06-.2-1.53-.41-1.33-.59-2.6-1.28-4.04-1.58-.24-.05-.45-.26-.69-.37-.13-.06-.28-.11-.43-.12-.47-.01-.97,.18-1.39-.22-.03-.03-.1-.01-.15,0-2.13,.44-4.28,.19-6.42,.14-1.05-.02-2.03,.25-3.05,.25-.22,0-.43,0-.65,0-.02-.04-.04-.08-.05-.11Z"/>
      <path class="cls-1" d="M83.26,40.49c1.02,.66,2.14,1.03,2.67,2.24-1.21,.72-2.37,1.57-3.93,1.51-.28-.01-.59,.2-.85,.36-.31,.19-.57,.44-.92,.63,.13-.79,.35-1.53,.89-2.12,.37-.41,.81-.76,1.16-1.19,.35-.43,.63-.92,.97-1.43Z"/>
      <path class="cls-1" d="M79.84,47.03c.4-.32,.76-.68,1.2-.93,.63-.36,1.3-.65,1.97-.95,.84-.38,1.7-.72,2.54-1.09,.6-.27,1.1-.5,1.72,.12,.3,.3,.75,.48,.97,.93-.61,.49-1.38,.37-2.07,.5-.26,.05-.52,.07-.77,.13-1.26,.3-2.52,.6-3.78,.92-.57,.14-1.13,.33-1.69,.49-.03-.04-.05-.07-.08-.11Z"/>
      <path class="cls-1" d="M87.19,41.85c-.09,.08-.18,.15-.26,.23-.46-.6-.89-1.22-1.14-2.03,.51,.66,.96,1.24,1.41,1.82,0,0-.01-.01-.01-.01Z"/>
    </g>
  </g>
</svg>